<?xml version="1.0" standalone="no"?>
<!DOCTYPE svg PUBLIC "-//W3C//DTD SVG 20010904//EN"
 "http://www.w3.org/TR/2001/REC-SVG-20010904/DTD/svg10.dtd">
<svg version="1.0" xmlns="http://www.w3.org/2000/svg"
 width="2280.000000pt" height="280.000000pt" viewBox="0 0 2280.000000 1280.000000"
 preserveAspectRatio="xMidYMid meet">

<g transform="translate(0.000000,1280.000000) scale(0.100000,-0.100000)"
fill="#000000" stroke="none">
<path d="M7640 9485 c-236 -65 -478 -270 -944 -800 -460 -522 -669 -724 -808
-777 -82 -31 -138 -25 -232 27 -184 100 -408 179 -596 210 -120 21 -319 16
-409 -9 -248 -69 -375 -291 -357 -626 9 -183 69 -462 133 -622 l16 -41 1486 6
c817 4 1497 9 1511 11 14 2 255 7 535 11 281 4 542 11 580 15 l70 7 -75 2
c-41 1 -145 2 -232 1 l-156 -1 -31 133 c-17 73 -42 185 -55 248 -14 63 -36
165 -50 225 -42 183 -75 375 -91 536 -36 354 -56 448 -116 539 -40 61 -73 83
-135 88 -65 5 -120 -23 -181 -92 -97 -110 -143 -255 -168 -528 -20 -221 -39
-327 -81 -458 -51 -158 -180 -414 -307 -607 l-41 -63 -225 0 -224 0 64 43 c35
23 104 83 154 132 192 192 273 365 375 805 66 284 108 416 177 555 107 215
259 407 365 459 169 84 342 -34 447 -304 37 -95 141 -492 226 -860 77 -335
194 -802 202 -810 15 -14 -42 404 -88 645 -53 277 -209 896 -264 1040 -63 168
-160 292 -273 347 -57 28 -77 33 -142 33 -88 0 -154 -26 -233 -92 -147 -123
-320 -400 -400 -643 -19 -58 -58 -206 -87 -330 -66 -289 -113 -427 -199 -597
-83 -161 -140 -240 -250 -346 l-81 -77 -82 0 -82 0 50 53 c149 153 269 418
409 899 175 601 276 849 462 1133 130 197 202 285 267 324 100 60 173 85 263
89 71 4 89 1 137 -21 69 -32 128 -92 207 -210 106 -159 170 -299 275 -610 80
-235 177 -570 237 -817 47 -191 136 -605 138 -637 0 -10 3 -13 6 -6 6 17 -50
394 -93 623 -150 800 -359 1362 -604 1623 -84 90 -159 127 -266 133 -52 3 -98
-1 -134 -11z m-524 -482 c-151 -221 -258 -482 -422 -1036 -53 -177 -114 -370
-135 -430 -114 -309 -251 -527 -364 -578 -171 -78 -451 81 -578 329 -25 48
-68 152 -97 232 -90 247 -149 357 -248 460 -58 60 -56 60 101 0 l103 -40 49
-107 c60 -130 218 -358 319 -459 86 -86 157 -125 243 -132 84 -6 151 26 227
109 100 111 130 193 221 610 37 171 82 466 72 476 -2 1 -26 -62 -55 -140 -37
-100 -70 -220 -111 -407 -65 -292 -83 -350 -140 -436 -67 -105 -151 -162 -220
-149 -105 19 -190 100 -371 353 -66 92 -137 189 -157 217 l-38 49 100 -54 c98
-54 102 -55 180 -55 71 0 89 4 147 33 156 77 340 255 798 772 165 187 418 460
425 460 2 0 -20 -35 -49 -77z m614 -419 c60 -51 101 -173 120 -351 5 -57 15
-149 20 -205 14 -136 52 -356 96 -551 35 -158 71 -273 146 -465 22 -57 38
-104 37 -105 -2 -1 -150 1 -329 4 -179 4 -452 7 -607 8 -156 0 -283 5 -283 9
0 5 12 19 26 33 92 85 243 316 313 479 72 171 103 307 126 565 17 188 26 248
57 348 39 126 150 257 218 257 16 0 42 -11 60 -26z m-2612 -524 c55 -16 127
-95 182 -201 22 -42 78 -178 123 -300 46 -123 99 -253 117 -289 66 -133 162
-243 269 -312 l45 -28 -130 0 -129 1 -55 101 c-30 56 -93 156 -140 222 -47 67
-144 204 -215 306 -193 275 -241 314 -390 314 -94 -1 -137 -17 -200 -75 -64
-59 -80 -114 -79 -264 3 -195 44 -387 118 -545 l26 -55 -82 -3 c-58 -2 -84 1
-89 10 -12 18 -68 225 -92 337 -26 120 -31 406 -8 486 47 166 141 262 296 302
62 16 369 10 433 -7z m-220 -276 c64 -32 74 -44 312 -384 112 -160 230 -316
282 -372 l90 -98 -455 0 -455 0 -17 118 c-9 64 -26 160 -37 212 -25 122 -36
362 -18 416 37 117 178 168 298 108z"/>
<path d="M8742 7075 c0 -16 2 -22 5 -12 2 9 2 23 0 30 -3 6 -5 -1 -5 -18z"/>
<path d="M3704 6313 c25 -125 31 -286 31 -863 0 -583 -5 -730 -32 -862 l-5
-28 107 0 108 0 -6 38 c-28 178 -32 287 -32 852 0 556 6 717 31 858 l6 32
-107 0 -107 0 6 -27z"/>
<path d="M4240 5593 c0 -411 -4 -786 -10 -833 -5 -47 -12 -111 -16 -142 l-7
-58 47 0 46 0 1 808 c0 542 3 802 10 792 6 -8 170 -292 366 -630 317 -547 523
-925 523 -959 0 -8 37 -11 121 -11 l121 0 -36 48 c-123 164 -230 318 -230 332
-1 10 168 305 374 658 359 614 375 639 384 609 5 -18 11 -317 13 -666 4 -593
1 -716 -24 -928 l-6 -53 105 0 104 0 -15 108 c-22 157 -22 1419 0 1570 l15
102 -102 0 -102 0 -393 -670 c-284 -486 -395 -668 -403 -660 -6 6 -182 307
-391 668 l-380 657 -58 3 -57 3 0 -748z"/>
<path d="M6439 6238 c12 -83 15 -232 16 -768 0 -627 -6 -808 -31 -892 -5 -16
4 -18 102 -18 l107 0 -8 63 c-21 189 -24 292 -24 827 0 535 3 638 24 828 l8
62 -105 0 -104 0 15 -102z"/>
<path d="M6933 6318 c26 -103 32 -278 32 -863 0 -583 -6 -743 -31 -868 l-6
-28 424 3 c483 5 500 7 675 93 382 188 567 608 458 1041 -8 32 -37 104 -64
159 -88 179 -219 309 -396 395 -174 85 -162 83 -659 87 l-438 4 5 -23z m890
-56 c240 -89 398 -267 483 -547 26 -84 28 -102 28 -265 0 -162 -2 -182 -28
-264 -72 -236 -212 -416 -394 -506 -123 -60 -140 -63 -484 -68 l-318 -4 0 842
0 841 328 -3 c305 -4 331 -6 385 -26z"/>
<path d="M8770 6333 c0 -5 7 -71 15 -148 11 -108 15 -276 15 -730 -1 -539 -4
-643 -25 -832 l-8 -63 607 0 606 0 9 23 c27 72 28 70 -24 62 -142 -21 -247
-26 -617 -32 l-408 -6 0 413 0 413 363 -6 c325 -6 439 -13 560 -33 l37 -6 0
46 0 46 -480 0 -480 0 0 406 0 406 443 -5 c289 -4 474 -10 534 -19 103 -15 98
-19 72 50 l-9 22 -605 0 c-333 0 -605 -3 -605 -7z"/>
<path d="M10154 6228 c101 -157 163 -265 315 -551 l132 -247 -224 -413 c-123
-226 -230 -422 -236 -435 -12 -23 -12 -23 34 -20 l46 3 38 90 c47 113 151 318
274 544 92 168 95 173 110 150 76 -123 298 -569 352 -708 16 -40 34 -75 40
-77 6 -3 55 -3 108 -2 l97 3 -43 65 c-91 135 -200 324 -337 580 l-141 265 20
35 c10 19 103 190 206 380 103 190 200 369 217 398 l29 52 -48 0 -48 0 -24
-63 c-13 -34 -43 -105 -68 -157 -50 -109 -304 -580 -313 -580 -16 0 -322 607
-371 738 l-24 62 -107 0 -107 0 73 -112z"/>
<path d="M1844 6273 c22 -198 25 -316 25 -833 0 -518 -3 -635 -25 -833 l-7
-58 424 3 c403 4 428 5 503 27 333 94 569 345 638 679 39 189 11 417 -73 585
-98 195 -277 358 -473 432 -137 52 -176 55 -613 55 l-406 0 7 -57z m836 -9
c202 -47 396 -222 490 -442 105 -248 101 -536 -11 -780 -112 -244 -304 -398
-536 -432 -38 -5 -191 -10 -340 -10 l-273 0 0 840 0 840 303 0 c235 0 316 -4
367 -16z"/>
<path d="M7440 3870 l0 -220 25 0 c15 0 25 6 25 14 0 10 9 9 39 -6 33 -16 46
-18 78 -9 67 18 103 73 103 157 0 86 -49 144 -121 144 -34 0 -85 -23 -92 -42
-3 -7 -6 31 -6 85 -1 97 -1 97 -26 97 l-25 0 0 -220z m190 22 c28 -23 39 -106
20 -153 -15 -35 -67 -63 -97 -52 -47 16 -63 44 -63 108 0 52 4 66 25 89 29 31
81 35 115 8z"/>
<path d="M8160 3870 l0 -220 25 0 25 0 0 220 0 220 -25 0 -25 0 0 -220z"/>
<path d="M7904 4065 c-9 -23 3 -45 25 -45 23 0 35 28 20 46 -15 18 -38 18 -45
-1z"/>
<path d="M8420 4065 c-10 -12 -10 -18 0 -30 7 -8 18 -15 25 -15 7 0 18 7 25
15 10 12 10 18 0 30 -7 8 -18 15 -25 15 -7 0 -18 -7 -25 -15z"/>
<path d="M9414 4066 c-10 -26 4 -48 28 -44 17 2 23 10 23 28 0 18 -6 26 -23
28 -13 2 -25 -3 -28 -12z"/>
<path d="M3255 4055 c-22 -8 -57 -32 -77 -53 -93 -100 -69 -276 46 -335 48
-25 144 -27 199 -4 l38 16 -3 93 -3 93 -67 3 c-67 3 -68 3 -68 -23 0 -23 3
-25 45 -25 l45 0 0 -55 c0 -64 -13 -75 -87 -75 -89 0 -152 68 -153 166 0 53
37 123 79 148 40 23 127 24 171 3 30 -15 30 -15 30 13 0 25 -5 31 -37 39 -51
15 -110 13 -158 -4z"/>
<path d="M5600 4040 c0 -13 7 -20 20 -20 19 0 20 -7 20 -165 0 -158 -1 -165
-20 -165 -13 0 -20 -7 -20 -20 0 -18 7 -20 65 -20 58 0 65 2 65 20 0 13 -7 20
-20 20 -19 0 -20 7 -20 165 0 158 1 165 20 165 13 0 20 7 20 20 0 18 -7 20
-65 20 -58 0 -65 -2 -65 -20z"/>
<path d="M3735 3925 c-23 -22 -25 -23 -25 -5 0 15 -7 20 -25 20 l-25 0 0 -145
0 -145 25 0 c25 0 25 0 25 95 0 131 17 162 83 157 12 -1 17 6 17 23 0 20 -5
25 -25 25 -14 0 -37 -11 -50 -25z"/>
<path d="M4511 3924 c-30 -25 -31 -25 -31 -5 0 16 -6 21 -25 21 l-25 0 0 -210
0 -210 25 0 c25 0 25 1 25 87 0 72 2 84 13 70 33 -43 121 -41 164 5 65 69 55
216 -16 252 -46 24 -94 20 -130 -10z m114 -39 c20 -19 25 -34 25 -75 0 -87
-44 -139 -106 -124 -66 17 -89 133 -38 193 33 40 83 43 119 6z"/>
<path d="M4943 3930 c-43 -26 -67 -74 -67 -135 0 -94 53 -148 145 -149 86 0
139 59 139 155 0 63 -27 114 -70 136 -38 19 -110 16 -147 -7z m142 -45 c21
-20 25 -34 25 -84 0 -79 -28 -116 -88 -116 -48 0 -76 23 -93 72 -14 45 -4 99
26 129 34 34 97 33 130 -1z"/>
<path d="M5981 3924 c-30 -25 -31 -25 -31 -5 0 14 -6 21 -20 21 -19 0 -20 -7
-20 -145 0 -135 1 -145 19 -145 17 0 19 10 23 104 3 94 6 108 27 130 32 34 83
35 105 4 12 -17 16 -49 16 -130 l0 -108 26 0 26 0 -4 126 c-3 124 -3 126 -31
150 -39 33 -95 33 -136 -2z"/>
<path d="M6431 3924 c-30 -25 -31 -25 -31 -5 0 14 -6 21 -20 21 -19 0 -20 -7
-20 -145 0 -138 1 -145 20 -145 18 0 20 7 20 89 0 130 20 171 84 171 44 0 56
-32 56 -152 l0 -108 25 0 25 0 0 104 c0 89 3 107 21 130 21 26 60 34 87 18 21
-14 32 -72 32 -164 0 -81 2 -88 20 -88 19 0 20 7 20 116 0 147 -17 183 -88
184 -36 0 -88 -23 -94 -41 -2 -7 -14 -2 -31 14 -35 36 -85 36 -126 1z"/>
<path d="M7031 3932 c-93 -50 -96 -209 -5 -268 34 -23 109 -23 152 0 39 20 72
83 72 136 0 51 -33 116 -69 134 -40 21 -109 20 -150 -2z m134 -45 c32 -27 43
-88 25 -142 -16 -49 -65 -72 -116 -55 -42 14 -64 53 -64 115 0 38 5 52 29 76
37 37 88 39 126 6z"/>
<path d="M8713 3938 c-14 -7 -23 -20 -23 -35 0 -23 1 -23 30 -8 59 31 125 9
118 -39 -2 -17 -12 -22 -52 -28 -97 -14 -126 -37 -126 -101 0 -78 119 -113
168 -50 11 15 12 15 12 -5 0 -17 6 -22 25 -22 l25 0 0 121 c0 120 0 121 -29
150 -25 24 -37 29 -78 28 -26 0 -58 -5 -70 -11z m127 -169 c0 -42 -14 -64 -50
-79 -25 -10 -34 -10 -55 4 -29 19 -33 57 -9 76 13 12 62 25 102 29 7 1 12 -11
12 -30z"/>
<path d="M9169 3921 l-29 -29 0 24 c0 17 -6 24 -20 24 -19 0 -20 -7 -20 -145
0 -138 1 -145 20 -145 18 0 20 7 20 85 0 124 34 188 90 170 16 -5 20 -2 20 19
0 37 -42 35 -81 -3z"/>
<path d="M9730 3932 c-50 -25 -72 -72 -68 -149 3 -53 8 -67 33 -93 103 -108
275 -11 248 140 -17 103 -117 151 -213 102z m127 -37 c48 -34 54 -143 10 -183
-32 -29 -61 -35 -100 -18 -45 18 -57 42 -57 106 0 44 5 56 29 81 33 33 82 39
118 14z"/>
<path d="M3980 3830 c0 -130 12 -162 65 -180 41 -13 99 1 115 28 8 15 9 14 10
-5 0 -18 6 -23 25 -23 l25 0 0 145 0 145 -25 0 -25 0 0 -102 c-1 -65 -5 -109
-13 -119 -20 -26 -55 -40 -83 -33 -38 10 -54 57 -54 164 0 83 -1 90 -20 90
-19 0 -20 -7 -20 -110z"/>
<path d="M7900 3795 l0 -145 25 0 25 0 0 145 0 145 -25 0 -25 0 0 -145z"/>
<path d="M8420 3795 l0 -145 25 0 25 0 0 145 0 145 -25 0 -25 0 0 -145z"/>
<path d="M9420 3795 c0 -144 0 -145 23 -145 22 0 22 1 22 145 0 144 0 145 -22
145 -23 0 -23 -1 -23 -145z"/>
</g>
</svg>
